<svg id="MIDALogo" xmlns="http://www.w3.org/2000/svg" xmlns:xlink="http://www.w3.org/1999/xlink" width="195.692" height="56" viewBox="0 0 195.692 56">
  <defs>
    <clipPath id="clip-path">
      <rect id="Rectangle_1" data-name="Rectangle 1" width="195.692" height="56" fill="none"/>
    </clipPath>
  </defs>
  <g id="Group_1" data-name="Group 1" clip-path="url(#clip-path)">
    <path id="Path_1" data-name="Path 1" d="M28.531,46.581A18.053,18.053,0,1,1,46.583,28.529,18.073,18.073,0,0,1,28.531,46.581m0-34.169A16.116,16.116,0,1,0,44.647,28.529,16.134,16.134,0,0,0,28.531,12.413" transform="translate(-0.53 -0.53)" fill="#050605"/>
    <path id="Path_2" data-name="Path 2" d="M28.873,40.558a.968.968,0,0,1-.968-.966,9.793,9.793,0,0,0-9.752-9.752.969.969,0,0,1-.966-.969h0a.968.968,0,0,1,.968-.966h.025a9.734,9.734,0,0,0,9.726-9.75.968.968,0,1,1,1.937,0,9.761,9.761,0,0,0,9.75,9.75.968.968,0,1,1,0,1.937,9.734,9.734,0,0,0-9.75,9.748v0a.968.968,0,0,1-.966.968ZM22.816,28.883a11.8,11.8,0,0,1,6.045,6.045,11.752,11.752,0,0,1,6.062-6.062,11.758,11.758,0,0,1-6.044-6.045,11.758,11.758,0,0,1-6.063,6.062" transform="translate(-0.87 -0.869)" fill="#050605"/>
    <path id="Path_3" data-name="Path 3" d="M28.873,40.558a.968.968,0,0,1-.968-.966,9.793,9.793,0,0,0-9.752-9.752.969.969,0,0,1-.966-.969h0a.968.968,0,0,1,.968-.966h.025a9.734,9.734,0,0,0,9.726-9.75.968.968,0,1,1,1.937,0,9.761,9.761,0,0,0,9.75,9.75.968.968,0,1,1,0,1.937,9.734,9.734,0,0,0-9.75,9.748v0a.968.968,0,0,1-.966.968ZM22.816,28.883a11.8,11.8,0,0,1,6.045,6.045,11.752,11.752,0,0,1,6.062-6.062,11.758,11.758,0,0,1-6.044-6.045,11.758,11.758,0,0,1-6.063,6.062" transform="translate(-0.87 -0.869)" fill="#5a5a5a"/>
    <path id="Path_4" data-name="Path 4" d="M51,32.622a.029.029,0,0,0,.008-.024c-.015.125-.031.25-.054.375.008-.016,0-.031,0-.047.008-.047.008-.1.015-.157A1.031,1.031,0,0,1,51,32.622" transform="translate(-2.579 -1.649)" fill="#050605"/>
    <path id="Path_5" data-name="Path 5" d="M51,32.622a.029.029,0,0,0,.008-.024c-.015.125-.031.25-.054.375.008-.016,0-.031,0-.047.008-.047.008-.1.015-.157A1.031,1.031,0,0,1,51,32.622" transform="translate(-2.579 -1.649)" fill="#050605"/>
    <path id="Path_6" data-name="Path 6" d="M57.328,28.415l-5.274-3.05-.39-.218a.983.983,0,0,0-1.341.359.941.941,0,0,0-.1.647c.008.039.015.078.024.118a21.447,21.447,0,0,1,.218,3c0,.25-.009.5-.016.749a3.918,3.918,0,0,1-.023.422.471.471,0,0,1-.009.109c-.015.311-.039.631-.078.944-.023.235-.054.468-.085.7,0,.008-.008.015-.008.023-.016.125-.031.25-.055.375V32.6c-.085.522-.195,1.038-.32,1.552-.008,0-.008.008-.008.016-.125.515-.273,1.029-.445,1.536-.047.133-.085.273-.14.414-.141.405-.3.812-.469,1.21-.03.063-.054.132-.078.195-.21.476-.437.936-.67,1.389-.047.078-.094.163-.141.241q-.293.551-.632,1.078c-.07.109-.141.226-.211.335-.234.351-.468.694-.718,1.022-.054.079-.109.157-.163.227-.3.405-.632.8-.967,1.17-.063.07-.125.141-.188.2-.272.3-.561.6-.85.882-.109.109-.227.21-.336.32-.272.25-.553.5-.842.733-.1.093-.211.187-.32.272-.383.3-.773.6-1.178.882-.093.07-.195.125-.289.187-.32.218-.647.422-.983.617-.157.093-.312.179-.476.272-.3.164-.593.32-.906.468-.156.078-.311.157-.476.227-.444.21-.9.4-1.358.569-.1.04-.2.07-.3.1l-.538.187c-.047.016-.1.04-.157.055-.078.024-.156.054-.234.078a3.144,3.144,0,0,1,.452,1.872c.46-.141.921-.28,1.374-.444l.234-.094c.445-.171.882-.35,1.311-.553.179-.078.351-.164.522-.25.344-.164.679-.335,1.006-.523.172-.093.336-.179.5-.272.4-.235.788-.484,1.171-.741.078-.047.148-.093.218-.141.453-.311.9-.64,1.326-.983l.328-.281c.32-.265.64-.546.944-.835.118-.1.235-.211.344-.32.335-.328.655-.664.975-1.006.055-.063.109-.125.172-.188q.561-.631,1.077-1.31c.047-.055.078-.109.117-.164.3-.389.577-.8.851-1.209.07-.109.141-.211.2-.32.249-.4.491-.8.718-1.217.047-.085.093-.164.132-.25a22.04,22.04,0,0,0,1.358-3.113c.047-.117.086-.242.125-.359.069-.211.124-.422.187-.624a24.787,24.787,0,0,0,.592-2.536l5.3-3.058a.99.99,0,0,0,0-1.7m-4.985,2.317c.031-.484.055-.975.055-1.467s-.016-.975-.047-1.459l2.528,1.459Z" transform="translate(-1.811 -1.266)" fill="#5a5a5a"/>
    <path id="Path_7" data-name="Path 7" d="M21.665,7.766A3.124,3.124,0,0,1,21.571,6.7c-.015,0-.03.008-.047.008a22.925,22.925,0,0,0-2.543.936.791.791,0,0,0-.124.055c-.367.156-.718.335-1.069.515-.117.054-.235.117-.359.179-.336.179-.671.366-1.006.57-.086.047-.164.1-.25.156a22.612,22.612,0,0,0-2.957,2.177l-.35.3c-.258.242-.516.484-.765.734-.117.117-.234.234-.343.351A22.954,22.954,0,0,0,9.6,15.294c-.118.164-.242.336-.351.5-.172.257-.336.523-.5.788-.125.2-.234.4-.351.593-.148.257-.3.515-.437.779-.125.258-.25.516-.366.773-.188.39-.367.8-.531,1.2-.109.272-.218.546-.32.827-.085.25-.164.5-.25.741-.039.141-.078.281-.125.422a24.822,24.822,0,0,0-.585,2.512L.492,27.488a.982.982,0,0,0,0,1.7l5.274,3.043.389.234a1,1,0,0,0,.492.125.968.968,0,0,0,.843-.484A.943.943,0,0,0,7.6,31.5c-.008-.062-.024-.117-.031-.179a21.088,21.088,0,0,1-.218-2.98,20.11,20.11,0,0,1,.234-3c.009-.047.009-.085.016-.124a20.2,20.2,0,0,1,.647-2.84c.024-.094.063-.188.085-.281.086-.25.172-.507.266-.757.07-.2.148-.4.226-.593.218-.553.46-1.092.725-1.623.047-.094.086-.179.133-.273.141-.272.3-.538.444-.8.086-.148.172-.289.257-.437.164-.266.328-.523.508-.78.078-.124.171-.25.257-.366a20.686,20.686,0,0,1,2.044-2.481c.085-.086.163-.172.25-.258.241-.241.491-.467.741-.7.086-.078.172-.148.266-.226a19.834,19.834,0,0,1,2.723-2.021c.07-.039.141-.085.211-.124.3-.187.616-.366.936-.531.093-.054.187-.1.281-.148a19.742,19.742,0,0,1,3.3-1.342c.039-.015.085-.03.124-.047a3.17,3.17,0,0,1-.359-.811M2.941,28.338l2.527-1.467c-.03.492-.054.975-.054,1.467s.015.975.047,1.459Z" transform="translate(0 -0.339)" fill="#5a5a5a"/>
    <path id="Path_8" data-name="Path 8" d="M5.7,29.491Z" transform="translate(-0.289 -1.492)" fill="#050605"/>
    <path id="Path_9" data-name="Path 9" d="M6.83,22.286c-.039.141-.078.281-.125.422H6.689c.047-.141.1-.281.141-.422" transform="translate(-0.339 -1.128)" fill="#050605"/>
    <path id="Path_10" data-name="Path 10" d="M37.645,51.819c-.453.164-.913.32-1.373.453v-.009c.46-.14.92-.28,1.373-.444" transform="translate(-1.836 -2.622)" fill="#050605"/>
    <path id="Path_11" data-name="Path 11" d="M52.285,36.272c-.063.211-.141.422-.211.632.07-.211.125-.422.188-.625a.028.028,0,0,1,.023-.008" transform="translate(-2.635 -1.835)" fill="#050605"/>
    <path id="Path_12" data-name="Path 12" d="M22.7,52.261v.023c-.211-.062-.422-.14-.624-.21.2.07.413.124.624.187" transform="translate(-1.117 -2.635)" fill="#050605"/>
    <path id="Path_13" data-name="Path 13" d="M6.946,37.036c-.085-.257-.179-.507-.257-.764H6.7c.078.257.164.515.25.764" transform="translate(-0.339 -1.835)" fill="#050605"/>
    <path id="Path_14" data-name="Path 14" d="M36.694,6.838c-.141-.047-.281-.085-.422-.124V6.7c.141.039.281.094.422.141" transform="translate(-1.836 -0.339)" fill="#050605"/>
    <path id="Path_15" data-name="Path 15" d="M52.291,22.7h-.008a2.282,2.282,0,0,0-.094-.3c.039.1.07.195.1.3" transform="translate(-2.641 -1.133)" fill="#050605"/>
    <path id="Path_16" data-name="Path 16" d="M51.879,21.8c-.172-.538-.366-1.06-.585-1.584-.086-.2-.164-.405-.258-.609-.124-.3-.265-.577-.413-.858-.094-.2-.2-.405-.3-.6-.149-.272-.3-.553-.46-.819-.118-.195-.235-.382-.359-.569-.058-.092-.124-.177-.183-.267-.427.544-.845,1.088-1.245,1.63l.093.15c.157.257.3.523.445.788.085.163.171.32.25.483.141.273.281.554.405.835.063.132.109.265.164.4a17.583,17.583,0,0,1,.616,1.647c.047.148.1.289.148.428a3.183,3.183,0,0,1,1.88-.444,2.145,2.145,0,0,0-.093-.3c-.031-.1-.07-.2-.1-.3" transform="translate(-2.433 -0.834)" fill="#5a5a5a"/>
    <path id="Path_17" data-name="Path 17" d="M25.5,7.49a.957.957,0,0,0,.6.109c.063-.008.124-.023.187-.031a20.992,20.992,0,0,1,2.973-.218,20.291,20.291,0,0,1,3.011.234c.086.015.172.023.266.039h.008a20.225,20.225,0,0,1,2.972.718c.242.078.492.156.734.25.234.078.453.172.679.257.265.109.531.218.8.335.359.164.718.336,1.061.515.226.118.444.242.663.367.175.1.348.2.523.309q.812-.6,1.643-1.252c-.174-.112-.349-.222-.52-.336-.257-.156-.515-.3-.78-.453-.211-.117-.413-.241-.631-.35-.4-.2-.8-.4-1.21-.585-.226-.1-.46-.2-.694-.29q-.469-.2-.96-.374c-.235-.085-.468-.157-.7-.235-.141-.047-.281-.085-.422-.124a22.952,22.952,0,0,0-2.527-.593L30.116.492a.974.974,0,0,0-1.693,0l-3.05,5.266-.227.4A.974.974,0,0,0,25.5,7.49m3.761-4.556,1.467,2.536c-.483-.031-.975-.055-1.467-.055s-.975.016-1.459.047Z" transform="translate(-1.266 0)" fill="#5a5a5a"/>
    <path id="Path_18" data-name="Path 18" d="M7.383,38.213c.117.289.235.585.366.866.109.25.227.484.344.725l.4.773c.124.226.257.453.382.679.172.281.344.554.523.827l.06.092q.657-.836,1.25-1.643c-.049-.079-.1-.156-.147-.235-.125-.211-.242-.413-.351-.624-.125-.235-.25-.468-.367-.71-.109-.211-.217-.429-.311-.647-.141-.3-.257-.6-.383-.9-.132-.328-.25-.671-.366-1.015-.07-.2-.141-.4-.2-.609a3.058,3.058,0,0,1-1.88.46c.078.257.163.516.25.764.132.406.281.8.437,1.2" transform="translate(-0.339 -1.811)" fill="#5a5a5a"/>
    <path id="Path_19" data-name="Path 19" d="M32.6,50.942a.974.974,0,0,0-.655-.1.615.615,0,0,0-.117.015,20.124,20.124,0,0,1-3,.227c-.344,0-.694-.009-1.038-.031a17.422,17.422,0,0,1-1.911-.2h-.031l-.289-.047h-.016a20.288,20.288,0,0,1-3.143-.772c-.141-.047-.289-.094-.437-.149-.383-.132-.757-.28-1.132-.437l-.281-.117c-.452-.2-.9-.413-1.326-.64-.132-.07-.265-.148-.4-.226-.238-.128-.471-.27-.7-.409-.549.4-1.1.826-1.647,1.258l.414.267c.344.211.686.405,1.03.6.141.078.273.156.405.226q.738.386,1.5.725c.024.009.039.016.063.024.492.211.99.405,1.49.577.133.047.273.094.406.133.2.07.413.124.624.187a22.522,22.522,0,0,0,2.512.592l3.067,5.3a.982.982,0,0,0,1.693,0l3.05-5.281.226-.383a.989.989,0,0,0-.359-1.341M28.834,55.5l-1.467-2.536c.484.031.975.055,1.467.055S29.809,53,30.3,52.97Z" transform="translate(-0.834 -2.432)" fill="#5a5a5a"/>
    <path id="Path_20" data-name="Path 20" d="M6.211,50.422c12.2-12.216,18.39-25.765,13.87-30.338,4.52,4.573,18.106-1.638,30.338-13.87C38.187,18.446,31.992,31.995,36.549,36.552c-4.557-4.557-18.142,1.654-30.338,13.87" transform="translate(-0.314 -0.314)" fill="#fff"/>
    <path id="Path_21" data-name="Path 21" d="M6.159,51.338a.969.969,0,0,1-.685-1.653C18.25,36.89,22.958,24.374,19.34,20.713a.968.968,0,0,1,1.378-1.361,4.82,4.82,0,0,0,3.546,1.216h.028c6.162,0,16.359-6.059,25.39-15.09a.969.969,0,1,1,1.37,1.37c-5.837,5.836-10.466,12.146-13.035,17.765-2.4,5.249-2.7,9.333-.835,11.2a.969.969,0,0,1-1.37,1.37c-1.869-1.869-5.957-1.563-11.216.841-5.629,2.573-11.933,7.2-17.751,13.028a.968.968,0,0,1-.685.284m16.1-29.05c.592,2.638-.084,6.218-2.019,10.449a52.462,52.462,0,0,1-5.181,8.719,52.339,52.339,0,0,1,8.728-5.192c4.24-1.939,7.825-2.612,10.461-2.009-.6-2.636.068-6.215,2-10.449A52.325,52.325,0,0,1,41.432,15.1c-6.447,4.66-12.633,7.4-17.141,7.4h-.033a8.974,8.974,0,0,1-2-.216" transform="translate(-0.263 -0.263)" fill="#050605"/>
    <path id="Path_22" data-name="Path 22" d="M31.959,29.353a2.6,2.6,0,1,0-2.6,2.6,2.6,2.6,0,0,0,2.6-2.6" transform="translate(-1.354 -1.354)" fill="#5a5a5a"/>
    <path id="Path_23" data-name="Path 23" d="M69.078,12.313c2.834.108,4.906.163,6.486.163a37.158,37.158,0,0,0,4.143-.163c1.254,3.489,7.9,18.262,11.34,26.493C95.9,27.249,101.076,14.82,101.894,12.313c1.2.108,2.291.163,4.252.163,2.126,0,4.416-.163,6-.163l.163,1.526c-1.09.11-2.78.273-3.6.328a1.068,1.068,0,0,0-.981,1.2v6.977c0,10.576.108,18.317.327,21.043.109,1.472.545,1.743,1.635,1.853l3,.272v1.526c-1.308-.053-4.689-.163-7.251-.163-2.181,0-4.906.11-7.414.163l.109-1.526c3.325-.218,4.088-.6,4.143-1.744.163-2.944.381-17.281.545-28.893h-.055c-5.832,14.774-10.521,26.82-12.429,31.782l-2.344.545C85.813,40.442,79,24.36,75.564,15.2H75.51c0,10.794.163,20.661.382,26.275.054,2.78.327,3.489,2.617,3.706l2.835.328v1.526c-1.853,0-4.416-.163-6.815-.163-2.561,0-4.851.163-6.05.163V45.511a20.871,20.871,0,0,0,2.507-.272c1.362-.218,2.072-.708,2.235-3.817.218-3.87.491-14.228.491-25.948L73.6,14.82c-.11-.382-.709-.654-1.745-.763l-2.835-.218Z" transform="translate(-3.465 -0.623)" fill="#161616"/>
    <path id="Path_24" data-name="Path 24" d="M123.356,22.125c0-3.38,0-4.8-.055-6.215-.054-1.636-.873-1.853-4.633-2.072l.054-1.526c1.527.055,4.634.163,7.142.163s5.5-.163,7.3-.163l.055,1.526c-3.489.11-4.2.491-4.307,1.745a62.111,62.111,0,0,0-.217,6.269V36.135c0,3.816.109,5.778.217,7.468.055,1.473.928,1.745,4.362,1.908l-.054,1.526c-2.017,0-5.07-.163-7.469-.163-2.235,0-5.287.11-7.086.163l.054-1.526c3.489-.109,4.306-.491,4.417-1.853.108-1.2.217-3.053.217-7.414Z" transform="translate(-6.005 -0.623)" fill="#161616"/>
    <path id="Path_25" data-name="Path 25" d="M142.634,23.379c0-4.306,0-6.814-.055-8.014-.054-.926-.382-1.144-1.417-1.253l-3.216-.328.109-1.472c1.2,0,4.415.163,6.65.163,2.562,0,5.56-.163,8.776-.163,6,0,8.995.818,11.285,2.235,4.143,2.507,6.541,7.25,6.541,14.01,0,7.2-2.453,13.573-9.267,16.736a22.76,22.76,0,0,1-9.54,1.8c-2.672-.055-5.342-.217-7.959-.217-2.236,0-5.887.162-6.923.162V45.511l2.617-.163c1.581-.164,2.016-.545,2.126-1.527.055-1.144.272-4.416.272-9.376Zm5.342,11.175c0,6.487.055,8.34.163,9.594.109.818.6,1.254,3.6,1.254,5.615,0,8.613-1.69,10.466-4.2,1.8-2.4,3.053-6.378,3.053-12.429,0-5.287-1.254-9.049-3.107-11.174-2.127-2.4-5.016-3.6-9.595-3.6-4.034,0-4.306.491-4.362,1.145-.054.817-.217,2.78-.217,8.45Z" transform="translate(-6.964 -0.623)" fill="#161616"/>
    <path id="Path_26" data-name="Path 26" d="M204.255,47.008c-1.254,0-3.98-.163-6.706-.163-2.617,0-4.906.163-7.3.163l-.109-1.527c3.326-.272,3.871-.49,3.6-1.581-.545-1.908-1.963-6.651-3.107-10.194-.872-.055-3.216-.055-5.561-.055-2.289,0-4.525,0-5.287.055-1.527,4.742-2.344,7.087-2.727,8.613-.545,2.344,0,2.889,4.417,3.161l-.055,1.527c-1.69,0-3.489-.163-5.942-.163-1.581,0-4.088.163-6.269.163V45.481c3.053-.217,4.089-.6,5.343-3.6,1.744-4.47,7.849-21.477,9.429-26.111.492-1.581.764-2.4.928-3.217a20.855,20.855,0,0,0,4.47-.817c2.671,9.1,8.34,27.093,10.412,32a2.527,2.527,0,0,0,2.4,1.581l2.072.163ZM180.432,31.8c.817.055,3,.109,5.07.109,2.017,0,4.088-.054,4.633-.109-1.362-4.742-3.161-10.576-4.58-15.318-1.361,4.034-3.051,8.831-5.123,15.318" transform="translate(-8.563 -0.594)" fill="#161616"/>
  </g>
</svg>
